<svg width="106" height="14" viewBox="0 0 106 14" fill="none" xmlns="http://www.w3.org/2000/svg">
<path d="M105.047 3.17182C104.604 3.37087 104.128 3.50514 103.628 3.56523C104.138 3.25614 104.53 2.76654 104.714 2.18249C104.237 2.46907 103.708 2.67703 103.146 2.78929C102.695 2.30365 102.053 2 101.343 2C99.9785 2 98.8725 3.1189 98.8725 4.49917C98.8725 4.69476 98.8943 4.88541 98.9365 5.06864C96.8835 4.96429 95.0631 3.96952 93.8447 2.45745C93.632 2.82638 93.5103 3.25564 93.5103 3.71409C93.5103 4.58102 93.9464 5.34608 94.6092 5.79413C94.2045 5.78103 93.8234 5.66852 93.4903 5.48133C93.49 5.49172 93.49 5.50235 93.49 5.51298C93.49 6.72362 94.3416 7.73348 95.4717 7.96344C95.2645 8.02032 95.0462 8.05098 94.8209 8.05098C94.6615 8.05098 94.5068 8.0354 94.356 8.00597C94.6706 8.99877 95.5827 9.72154 96.6635 9.74157C95.8181 10.4119 94.7532 10.8115 93.5956 10.8115C93.3964 10.8115 93.1997 10.7996 93.0063 10.7764C94.0999 11.4858 95.3982 11.8993 96.793 11.8993C101.337 11.8993 103.821 8.09128 103.821 4.78873C103.821 4.68042 103.819 4.57236 103.815 4.46505C104.297 4.11343 104.716 3.67304 105.047 3.17182Z" fill="#3C271D"/>
<path d="M5.35138 4.51134H3.52889V3.06534C3.52889 2.52229 3.8264 2.39569 4.03594 2.39569C4.24501 2.39569 5.32206 2.39569 5.32206 2.39569V0.00836342L3.55082 0C1.58458 0 1.13712 1.78054 1.13712 2.91999V4.51134H0V6.97134H1.13712C1.13712 10.1284 1.13712 13.9323 1.13712 13.9323H3.52889C3.52889 13.9323 3.52889 10.0909 3.52889 6.97134H5.14279L5.35138 4.51134Z" fill="#3C271D"/>
<path fill-rule="evenodd" clip-rule="evenodd" d="M30.1224 6.68601C30.1224 4.76412 31.6281 3.22119 33.4452 3.22119C35.2624 3.22119 36.768 4.79119 36.768 6.68601C36.768 8.58084 35.2883 10.1508 33.4452 10.1508C31.6021 10.1508 30.1224 8.60791 30.1224 6.68601ZM31.3166 6.68602C31.3166 7.90412 32.277 8.90567 33.4452 8.90567C34.6133 8.90567 35.5738 7.90412 35.5738 6.68602C35.5738 5.46792 34.6133 4.46637 33.4452 4.46637C32.277 4.46637 31.3166 5.46792 31.3166 6.68602Z" fill="#3C271D"/>
<path d="M36.8978 3.92497C37.3136 3.92497 37.6507 3.57352 37.6507 3.13998C37.6507 2.70644 37.3136 2.35498 36.8978 2.35498C36.4821 2.35498 36.145 2.70644 36.145 3.13998C36.145 3.57352 36.4821 3.92497 36.8978 3.92497Z" fill="#3C271D"/>
<path fill-rule="evenodd" clip-rule="evenodd" d="M36.1181 0C37.2084 0 38.1689 0.378964 38.8438 1.10982C39.5188 1.81361 39.8822 2.78809 39.8822 3.92499V9.50117C39.8822 10.6651 39.5188 11.6667 38.8179 12.3705C38.1429 13.0472 37.2084 13.4262 36.0921 13.4262H30.7964C29.7321 13.4262 28.7975 13.0743 28.0966 12.3705C27.3698 11.6396 27.0063 10.6381 27.0063 9.47411V3.92499C27.0063 1.56999 28.512 0 30.7705 0H36.1181ZM37.9881 11.4772C38.4554 11.0171 38.7409 10.3403 38.7409 9.50119V3.925C38.7409 3.14 38.4813 2.46328 38.04 1.97604C37.5727 1.4888 36.9238 1.24518 36.145 1.24518H30.7974C30.0186 1.24518 29.3437 1.4888 28.9024 1.94897C28.4351 2.43621 28.2015 3.11293 28.2015 3.925V9.47412C28.2015 10.3133 28.4351 10.99 28.9024 11.4772C29.3696 11.9374 30.0186 12.181 30.7974 12.181H36.0931C36.8718 12.181 37.5208 11.9374 37.9881 11.4772Z" fill="#3C271D"/>
<path d="M63.4502 7.78099C63.6113 7.8544 63.7578 7.78329 63.8039 7.5883C63.8373 7.45296 63.9127 7.11117 63.9482 6.96894C63.9964 6.77396 63.9775 6.70514 63.8457 6.53768C63.5632 6.17066 63.3812 5.69352 63.3812 5.0214C63.3812 3.06698 64.7141 1.31901 66.8527 1.31901C68.7465 1.31901 69.7865 2.58755 69.7865 4.28046C69.7865 6.51016 68.8867 8.39117 67.5516 8.39117C66.813 8.39117 66.2626 7.72135 66.4384 6.90242C66.6518 5.92291 67.062 4.86541 67.062 4.15888C67.062 3.52576 66.7523 2.99816 66.1099 2.99816C65.3565 2.99816 64.7497 3.85379 64.7497 4.99846C64.7497 5.72793 64.9757 6.22342 64.9757 6.22342C64.9757 6.22342 64.2035 9.80653 64.0675 10.4351C63.7976 11.6852 64.0278 13.2176 64.0466 13.3736C64.0592 13.4653 64.1659 13.486 64.214 13.4172C64.2852 13.3185 65.1829 12.1027 65.4884 10.887C65.5742 10.5429 65.9843 8.76279 65.9843 8.76279C66.2291 9.27434 66.9448 9.72624 67.7065 9.72624C69.9727 9.72624 71.5108 7.45984 71.5108 4.42727C71.5108 2.13564 69.7405 0 67.0473 0C63.6971 0 62.0063 2.63342 62.0063 4.82871C62.0063 6.15919 62.4667 7.34056 63.4502 7.78099Z" fill="#3C271D"/>
</svg>
