<svg width="13" height="14" viewBox="0 0 13 14" fill="none" xmlns="http://www.w3.org/2000/svg">
<path fill-rule="evenodd" clip-rule="evenodd" d="M3.12241 6.68601C3.12241 4.76412 4.62805 3.22119 6.44522 3.22119C8.26238 3.22119 9.76803 4.79119 9.76803 6.68601C9.76803 8.58084 8.28834 10.1508 6.44522 10.1508C4.6021 10.1508 3.12241 8.60791 3.12241 6.68601ZM4.31656 6.68602C4.31656 7.90412 5.27704 8.90567 6.44519 8.90567C7.61334 8.90567 8.57382 7.90412 8.57382 6.68602C8.57382 5.46792 7.61334 4.46637 6.44519 4.46637C5.27704 4.46637 4.31656 5.46792 4.31656 6.68602Z" fill="#3C271D"/>
<path d="M9.89784 3.92497C10.3136 3.92497 10.6507 3.57352 10.6507 3.13998C10.6507 2.70644 10.3136 2.35498 9.89784 2.35498C9.48205 2.35498 9.14499 2.70644 9.14499 3.13998C9.14499 3.57352 9.48205 3.92497 9.89784 3.92497Z" fill="#3C271D"/>
<path fill-rule="evenodd" clip-rule="evenodd" d="M9.11811 0C10.2084 0 11.1689 0.378964 11.8438 1.10982C12.5188 1.81361 12.8822 2.78809 12.8822 3.92499V9.50117C12.8822 10.6651 12.5188 11.6667 11.8179 12.3705C11.1429 13.0472 10.2084 13.4262 9.09215 13.4262H3.79642C2.73209 13.4262 1.79755 13.0743 1.09664 12.3705C0.36978 11.6396 0.00634766 10.6381 0.00634766 9.47411V3.92499C0.00634766 1.56999 1.51199 0 3.77046 0H9.11811ZM10.9881 11.4772C11.4554 11.0171 11.7409 10.3403 11.7409 9.50119V3.925C11.7409 3.14 11.4813 2.46328 11.04 1.97604C10.5727 1.4888 9.92376 1.24518 9.14498 1.24518H3.79738C3.01861 1.24518 2.34367 1.4888 1.90236 1.94897C1.4351 2.43621 1.20146 3.11293 1.20146 3.925V9.47412C1.20146 10.3133 1.4351 10.99 1.90236 11.4772C2.36963 11.9374 3.01861 12.181 3.79738 12.181H9.09306C9.87184 12.181 10.5208 11.9374 10.9881 11.4772Z" fill="#3C271D"/>
</svg>
