<svg width="10" height="14" viewBox="0 0 10 14" fill="none" xmlns="http://www.w3.org/2000/svg">
<path d="M1.45022 7.78099C1.61135 7.8544 1.75783 7.78329 1.80386 7.5883C1.83734 7.45296 1.91268 7.11117 1.94825 6.96894C1.99638 6.77396 1.97755 6.70514 1.84571 6.53768C1.56322 6.17066 1.38116 5.69352 1.38116 5.0214C1.38116 3.06698 2.71413 1.31901 4.85273 1.31901C6.7465 1.31901 7.78651 2.58755 7.78651 4.28046C7.78651 6.51016 6.88671 8.39117 5.55165 8.39117C4.81297 8.39117 4.26263 7.72135 4.4384 6.90242C4.65184 5.92291 5.06199 4.86541 5.06199 4.15888C5.06199 3.52576 4.75229 2.99816 4.10987 2.99816C3.35655 2.99816 2.7497 3.85379 2.7497 4.99846C2.7497 5.72793 2.9757 6.22342 2.9757 6.22342C2.9757 6.22342 2.20354 9.80653 2.06753 10.4351C1.79758 11.6852 2.02777 13.2176 2.0466 13.3736C2.05916 13.4653 2.16588 13.486 2.21401 13.4172C2.28515 13.3185 3.18286 12.1027 3.48838 10.887C3.57417 10.5429 3.98432 8.76279 3.98432 8.76279C4.22915 9.27434 4.9448 9.72624 5.7065 9.72624C7.97275 9.72624 9.51078 7.45984 9.51078 4.42727C9.51078 2.13564 7.74047 0 5.04734 0C1.69714 0 0.00634766 2.63342 0.00634766 4.82871C0.00634766 6.15919 0.466712 7.34056 1.45022 7.78099Z" fill="#3C271D"/>
</svg>
