<svg width="13" height="10" viewBox="0 0 13 10" fill="none" xmlns="http://www.w3.org/2000/svg">
<path d="M12.0469 1.17182C11.6042 1.37087 11.1279 1.50514 10.628 1.56523C11.1384 1.25614 11.5297 0.766541 11.7142 0.182486C11.2369 0.469074 10.7085 0.677029 10.1456 0.78929C9.69512 0.303649 9.05305 0 8.34254 0C6.97847 0 5.8725 1.1189 5.8725 2.49917C5.8725 2.69476 5.89425 2.88541 5.93654 3.06864C3.88347 2.96429 2.06308 1.96952 0.844684 0.457452C0.632045 0.826381 0.510327 1.25564 0.510327 1.71409C0.510327 2.58102 0.94636 3.34608 1.60921 3.79413C1.20446 3.78103 0.82342 3.66852 0.490285 3.48133C0.490041 3.49172 0.490041 3.50235 0.490041 3.51298C0.490041 4.72362 1.34158 5.73348 2.47174 5.96344C2.26448 6.02032 2.04622 6.05098 1.82087 6.05098C1.66151 6.05098 1.5068 6.0354 1.356 6.00597C1.67056 6.99877 2.5827 7.72154 3.6635 7.74157C2.81807 8.41192 1.75317 8.81151 0.595627 8.81151C0.396431 8.81151 0.199678 8.79965 0.00634766 8.7764C1.09985 9.48582 2.39817 9.89926 3.79304 9.89926C8.33692 9.89926 10.8214 6.09128 10.8214 2.78873C10.8214 2.68042 10.8192 2.57236 10.8145 2.46505C11.297 2.11343 11.7159 1.67304 12.0469 1.17182Z" fill="#3C271D"/>
</svg>
